HIERARCHY
ROOT RootJoint
{
    OFFSET   0.000000   0.000000   0.000000
    CHANNELS 6 Xposition Yposition Zposition Xrotation Yrotation Zrotation
    JOINT pelvis_lowerback
    {
        OFFSET   0.000000   0.093605   0.000000
        CHANNELS 3 Xrotation Yrotation Zrotation
        JOINT lowerback_torso
        {
            OFFSET   0.000000   0.100000   0.000000
            CHANNELS 3 Xrotation Yrotation Zrotation
            JOINT torso_head
            {
                OFFSET   0.000000   0.282350   0.000000
                CHANNELS 3 Xrotation Yrotation Zrotation
                End Site
                {
                    OFFSET   0.000000   0.192650   0.000000
                }
            }
            JOINT rTorso_Clavicle
            {
                OFFSET  -0.001000   0.157500   0.000000
                CHANNELS 3 Xrotation Yrotation Zrotation
                JOINT rShoulder
                {
                    OFFSET  -0.117647   0.000000   0.000000
                    CHANNELS 3 Xrotation Yrotation Zrotation
                    JOINT rElbow
                    {
                        OFFSET  -0.245000   0.000000   0.000000
                        CHANNELS 3 Xrotation Yrotation Zrotation
                        JOINT rWrist
                        {
                            OFFSET  -0.240000   0.000000   0.000000
                            CHANNELS 3 Xrotation Yrotation Zrotation
                            End Site
                            {
                                OFFSET  -0.116353  -0.002500   0.000000
                            }
                        }
                    }
                }
            }
            JOINT lTorso_Clavicle
            {
                OFFSET   0.001000   0.157500   0.000000
                CHANNELS 3 Xrotation Yrotation Zrotation
                JOINT lShoulder
                {
                    OFFSET   0.117647   0.000000   0.000000
                    CHANNELS 3 Xrotation Yrotation Zrotation
                    JOINT lElbow
                    {
                        OFFSET   0.245000   0.000000   0.000000
                        CHANNELS 3 Xrotation Yrotation Zrotation
                        JOINT lWrist
                        {
                            OFFSET   0.240000   0.000000   0.000000
                            CHANNELS 3 Xrotation Yrotation Zrotation
                            End Site
                            {
                                OFFSET   0.116353  -0.002500   0.000000
                            }
                        }
                    }
                }
            }
        }
    }
    JOINT rHip
    {
        OFFSET  -0.100000  -0.051395   0.000000
        CHANNELS 3 Xrotation Yrotation Zrotation
        JOINT rKnee
        {
            OFFSET   0.000000  -0.410000   0.000000
            CHANNELS 3 Xrotation Yrotation Zrotation
            JOINT rAnkle
            {
                OFFSET   0.000000  -0.390000   0.000000
                CHANNELS 3 Xrotation Yrotation Zrotation
                JOINT rToeJoint
                {
                    OFFSET   0.000000  -0.050000   0.130000
                    CHANNELS 3 Xrotation Yrotation Zrotation
                    End Site
                    {
                        OFFSET  -0.010000   0.002000   0.060000
                    }
                }
            }
        }
    }
    JOINT lHip
    {
        OFFSET   0.100000  -0.051395   0.000000
        CHANNELS 3 Xrotation Yrotation Zrotation
        JOINT lKnee
        {
            OFFSET   0.000000  -0.410000   0.000000
            CHANNELS 3 Xrotation Yrotation Zrotation
            JOINT lAnkle
            {
                OFFSET   0.000000  -0.390000   0.000000
                CHANNELS 3 Xrotation Yrotation Zrotation
                JOINT lToeJoint
                {
                    OFFSET   0.000000  -0.050000   0.130000
                    CHANNELS 3 Xrotation Yrotation Zrotation
                    End Site
                    {
                        OFFSET   0.010000   0.002000   0.060000
                    }
                }
            }
        }
    }
}
MOTION
Frames: 11
Frame Time:   0.008333
 -2.376719   0.925631   3.975860   0.000000   0.000000   0.000000   0.000000   0.000000   0.000000   0.000000   0.000000   0.000000   0.000000   0.000000   0.000000   0.000000   0.000000   0.000000   0.000000   0.000000   0.000000   0.000000   0.000000   0.000000   0.000000   0.000000   0.000000   0.000000   0.000000   0.000000   0.000000   0.000000   0.000000   0.000000   0.000000   0.000000   0.000000   0.000000   0.000000   0.000000   0.000000   0.000000   0.000000   0.000000   0.000000   0.000000   0.000000   0.000000   0.000000   0.000000   0.000000   0.000000   0.000000   0.000000   0.000000   0.000000   0.000000   0.000000   0.000000   0.000000   0.000000   0.000000   0.000000
 -2.376096   0.926041   3.975399  -0.271104  -0.417969   0.144722   0.500604   0.281053   0.114316  -0.040061  -0.082232  -0.237656  -0.029759   0.173867   0.093537   0.228720  -0.408234  -0.071140   1.083092   0.433241   2.226085   0.021638   1.124329  -0.014909   0.278031  -0.379759  -2.332104   0.216069   0.605840  -0.322461   0.782636   0.040483  -2.105486   0.023179  -1.099835   0.011538   0.314535   0.024289   2.764265  -0.794006   0.029738  -0.260284   3.275041   0.003044  -0.011274  -2.607858  -0.666256   0.391455  -0.607683   0.001387   0.005594  -0.287870   0.498556  -0.201591   1.997233   0.001059   0.001369  -2.253708   0.940098   0.482199   0.313551  -0.001135   0.002806
 -2.375341   0.926705   3.975459  -0.667562  -0.875970   0.326374   0.979987   0.554489   0.233178   0.011686  -0.134028  -0.505338  -0.011816   0.335220   0.198768   0.452448  -0.791965   0.461182   2.135270   0.929991   4.929191   0.049478   2.214845  -0.025439   0.607476  -0.413069  -4.018470   0.438285   1.232688  -1.362257   1.554846   0.079388  -4.787998   0.052600  -2.145030   0.019477   0.680178  -0.206482   4.807692  -1.457679   0.035024  -0.610330   6.906902   0.005943  -0.024277  -5.030992  -1.315643   0.727798  -1.233667   0.001819   0.010580  -0.425998   0.983694  -0.414328   4.133098   0.001596   0.001482  -4.366552   1.812864   0.969575   0.513291  -0.001651   0.003831
 -2.374589   0.927246   3.975955  -1.070550  -1.326858   0.511333   1.383077   0.817801   0.340612   0.049531  -0.168629  -0.776864   0.013845   0.484565   0.307163   0.665579  -1.149833   1.383879   3.147468   1.470679   7.944239   0.076350   3.234336  -0.031506   0.930498  -0.363505  -5.004824   0.661733   1.835909  -2.830456   2.316715   0.098926  -7.841137   0.080788  -3.115468   0.023936   1.039364  -0.458998   6.036052  -2.032774   0.040139  -0.992888  10.597972   0.007533  -0.035454  -7.284861  -1.936204   1.015252  -1.794336   0.001608   0.013844  -0.501172   1.436331  -0.593657   6.186536   0.001331   0.001111  -6.342684   2.610698   1.454840   0.698419  -0.002050   0.004379
 -2.373885   0.927403   3.976788  -1.458022  -1.751990   0.689310   1.717018   1.068677   0.431162   0.054556  -0.193710  -1.046418   0.035632   0.623568   0.413508   0.873186  -1.489847   2.541558   4.120423   2.054764  11.171578   0.099152   4.182723  -0.034363   1.237442  -0.305627  -5.466853   0.888704   2.411414  -4.535965   3.072546   0.091197 -11.140245   0.104627  -4.015233   0.025936   1.380829  -0.686292   6.664381  -2.540735   0.048497  -1.386144  14.305867   0.007867  -0.044165  -9.385793  -2.526033   1.259826  -2.308114   0.001072   0.015814  -0.545568   1.858303  -0.730867   8.122752   0.000505   0.000821  -8.193889   3.339768   1.934171   0.863851  -0.002326   0.004577
 -2.373241   0.926984   3.977876  -1.829451  -2.143263   0.857094   1.993756   1.306017   0.503889   0.031002  -0.212881  -1.312106   0.052440   0.753143   0.514868   1.078848  -1.817317   3.826441   5.053950   2.682261  14.540790   0.116760   5.063316  -0.035091   1.525864  -0.262008  -5.569218   1.120531   2.960440  -6.355156   3.824272   0.052720 -14.602404   0.123041  -4.848915   0.026310   1.701287  -0.877839   6.888471  -2.990004   0.060554  -1.780401  18.024500   0.007257  -0.050469 -11.345267  -3.084708   1.466947  -2.780516   0.000384   0.016791  -0.572579   2.251538  -0.827882   9.939815  -0.000591   0.000799  -9.928687   4.005880   2.404381   1.010604  -0.002492   0.004546
 -2.372665   0.925855   3.979151  -2.181478  -2.495695   1.013770   2.218328   1.529715   0.559166  -0.015994  -0.227665  -1.575914   0.064975   0.873928   0.610874   1.285125  -2.135916   5.166966   5.947184   3.352489  18.004206   0.129123   5.880074  -0.034488   1.795839  -0.240194  -5.434689   1.358543   3.485688  -8.219586   4.564351  -0.017667 -18.139811   0.135915  -5.620981   0.025601   2.000538  -1.032638   6.833215  -3.368856   0.075276  -2.169224  21.669516   0.006017  -0.054247 -13.172210  -3.612601   1.641172  -3.212814  -0.000327   0.016997  -0.595791   2.617693  -0.888421  11.640761  -0.001737   0.001081 -11.554450   4.614335   2.862900   1.141141  -0.002567   0.004376
 -2.371866   0.923483   3.980362  -2.502792  -3.011206   1.424376   2.411694   1.845197   0.358221  -0.041363  -0.191011  -1.912958  -0.040403   0.898001   0.530951   1.756025  -2.284131   5.787122   7.004457   4.240791  21.849081   0.132908   6.601913  -0.036693   2.001049  -0.235337  -4.599613   1.622968   3.887717  -9.325210   4.917957  -0.112637 -21.681179   0.147855  -6.547070   0.023497   2.143724  -0.908341   5.751616  -3.733039  -0.229835  -2.805003  24.337081  -0.000259  -0.064417 -11.937187  -4.453328   1.690706  -3.588833  -0.001694   0.019554  -0.336544   3.249753  -1.410622  12.979474   0.000121   0.001990 -13.229694   5.235749   3.599657   1.429666  -0.003490   0.005471
 -2.371054   0.920004   3.981371  -2.777673  -3.559615   1.847812   2.597400   2.143147   0.142663  -0.081749  -0.151311  -2.257175  -0.154289   0.918386   0.425935   2.179994  -2.360629   6.239245   7.950662   5.192427  25.448454   0.132177   7.289731  -0.037505   2.218189  -0.173977  -3.732536   1.859381   4.204545 -10.176988   5.226230  -0.255170 -24.871672   0.150933  -7.430998   0.021770   2.280954  -0.859929   4.727514  -4.232099  -0.532453  -3.372424  26.682062  -0.007727  -0.069780 -10.753209  -5.247745   1.749875  -3.706918  -0.001724   0.017486   0.024242   3.853324  -2.077324  14.239333   0.002709   0.001682 -14.806071   5.794966   4.304575   1.673549  -0.003700   0.005784
 -2.370336   0.916253   3.982054  -3.037965  -4.098552   2.136690   2.809443   2.404562   0.022904  -0.121185  -0.128514  -2.534665  -0.264726   0.937553   0.321280   2.554281  -2.389577   6.640816   8.763803   6.158242  28.767000   0.128643   7.942350  -0.037098   2.431746  -0.064795  -2.982823   2.063706   4.444770 -10.913311   5.489822  -0.437551 -27.789858   0.148604  -8.269305   0.020585   2.422249  -0.878780   3.904329  -4.893734  -0.796449  -3.624847  28.728189  -0.016109  -0.069144 -10.396810  -5.892514   1.932684 -12.224506   0.003392   0.129136   0.464652   4.407954  -2.717165  15.437682   0.005523   0.000762 -16.281832   6.297423   4.976712   1.913475  -0.003611   0.005811
 -2.369537   0.913529   3.982548  -3.338553  -4.437950   2.134079   3.048677   2.563421   0.144698  -0.143853  -0.177510  -2.685771  -0.361986   0.953383   0.229070   2.898153  -2.412477   7.045706   9.468121   7.099628  31.845245   0.123350   8.549224  -0.035769   2.634880   0.034919  -2.349377   2.228274   4.607163 -11.647878   5.705854  -0.663300 -30.518133   0.143534  -9.066811   0.019488   2.567652  -0.966355   3.215685  -5.686374  -0.964377  -3.699851  30.907871  -0.019599  -0.064697 -10.779423  -6.495716   2.123276 -13.988572  -0.001621   0.122016   0.985705   4.894312  -3.195690  16.571489   0.009055   0.000927 -17.661769   6.749289   5.615353   2.162345  -0.003258   0.006043
